<svg xmlns="http://www.w3.org/2000/svg" viewBox="0 0 500 500"><g id="freepik--background-simple--inject-158"><path d="M197.83,195.15c70-20.55,97.46-173.44,198.76-92.18,71.86,57.65,24.54,202.44-66.69,187.39-55.21-9.11-46.64-10.31-94.09,17.95C187.73,337,135.09,351.86,85.18,303.63c-25.83-25-35-86.8-8.86-119.39C109,143.49,155.07,207.7,197.83,195.15Z" style="fill:#008000"/><path d="M197.83,195.15c70-20.55,97.46-173.44,198.76-92.18,71.86,57.65,24.54,202.44-66.69,187.39-55.21-9.11-46.64-10.31-94.09,17.95C187.73,337,135.09,351.86,85.18,303.63c-25.83-25-35-86.8-8.86-119.39C109,143.49,155.07,207.7,197.83,195.15Z" style="fill:#fff;opacity:0.9"/></g><g id="freepik--Shadow--inject-158"><ellipse id="freepik--path--inject-158" cx="250" cy="416.24" rx="193.89" ry="11.32" style="fill:#f5f5f5"/></g><g id="freepik--arrow-1--inject-158"><polygon points="245.47 235.11 247.15 237.19 87.42 364.42 94.23 372.85 95.16 374 254.89 246.77 256.57 248.85 259.56 235.08 245.47 235.11" style="fill:#008000"/><polygon points="245.47 235.11 247.15 237.19 87.42 364.42 94.23 372.85 95.16 374 254.89 246.77 256.57 248.85 259.56 235.08 245.47 235.11" style="fill:#fff;opacity:0.7000000000000001"/><path d="M63.91,373.32a5.27,5.27,0,0,1,5.26-5.26,5,5,0,0,1,1.51.23,10.84,10.84,0,0,1-.12-1.62A11.13,11.13,0,0,1,81.7,355.54a10.64,10.64,0,0,1,2,.19,9.73,9.73,0,0,1,18,4.92H102a9,9,0,1,1,0,17.94H69A5.25,5.25,0,0,1,63.91,373.32Z" style="fill:#008000"/><path d="M63.91,373.32a5.27,5.27,0,0,1,5.26-5.26,5,5,0,0,1,1.51.23,10.84,10.84,0,0,1-.12-1.62A11.13,11.13,0,0,1,81.7,355.54a10.64,10.64,0,0,1,2,.19,9.73,9.73,0,0,1,18,4.92H102a9,9,0,1,1,0,17.94H69A5.25,5.25,0,0,1,63.91,373.32Z" style="fill:#fff;opacity:0.8"/></g><g id="freepik--arrow-3--inject-158"><polygon points="398.75 315.71 402.74 320.65 328.49 380.62 344.63 400.6 346.84 403.34 421.08 343.36 425.07 348.3 432.17 315.64 398.75 315.71" style="fill:#008000"/><polygon points="398.75 315.71 402.74 320.65 328.49 380.62 344.63 400.6 346.84 403.34 421.08 343.36 425.07 348.3 432.17 315.64 398.75 315.71" style="fill:#fff;opacity:0.5"/><path d="M358.61,378.47a16.91,16.91,0,0,0-28.85.24,9,9,0,0,0-11.53,8.73h-4.78a4.54,4.54,0,1,0,0,9.07H330a16.92,16.92,0,0,0,26.4,2.77,8.11,8.11,0,0,0,.86,0,10.48,10.48,0,0,0,1.39-20.87Z" style="fill:#008000"/><path d="M358.61,378.47a16.91,16.91,0,0,0-28.85.24,9,9,0,0,0-11.53,8.73h-4.78a4.54,4.54,0,1,0,0,9.07H330a16.92,16.92,0,0,0,26.4,2.77,8.11,8.11,0,0,0,.86,0,10.48,10.48,0,0,0,1.39-20.87Z" style="fill:#fff;opacity:0.8"/></g><g id="freepik--character-1--inject-158"><path d="M247.14,175.55,245.7,174a1.64,1.64,0,0,0-1.51-.48L242,174a1.67,1.67,0,0,0-1.33,1.42l-1.1,9,3.34,1.29c4.08-1.78,3.87-7.16,3.87-7.16l.58-1.07A1.65,1.65,0,0,0,247.14,175.55Z" style="fill:#ffb573"/><path d="M206.77,202.64s3.21.19,5.09.15,3.78-.06,5.63-.17,3.68-.25,5.36-.48a20.16,20.16,0,0,0,2.28-.44l.72-.23c.22-.1,0,.07.1,0a16.25,16.25,0,0,0,1.45-1.66c.55-.7,1.1-1.45,1.65-2.21,1.1-1.53,2.18-3.12,3.27-4.72l6.53-9.69,5.11,2.71c-.75,1.87-1.57,3.67-2.38,5.49s-1.71,3.6-2.59,5.39-1.84,3.57-2.86,5.35c-.51.89-1,1.78-1.62,2.69a20.6,20.6,0,0,1-2.22,2.95A9.08,9.08,0,0,1,230,209.5a15,15,0,0,1-2,.89,25.52,25.52,0,0,1-3.44,1,48.88,48.88,0,0,1-6.33,1,98.57,98.57,0,0,1-12.27.48Z" style="fill:#008000"/><path d="M244,185.92c-.75,1.86-1.56,3.66-2.37,5.48s-1.71,3.6-2.6,5.4-1.83,3.56-2.85,5.34c-.51.89-1,1.78-1.63,2.69a19.72,19.72,0,0,1-2.21,2.95A9.12,9.12,0,0,1,230,209.5a14.56,14.56,0,0,1-2,.9,27.29,27.29,0,0,1-3.43,1,50.73,50.73,0,0,1-6.33,1c-.89.09-1.77.16-2.64.23-3.21.23-6.37.31-9.63.24l.16-2.1.63-8.07s3.2.2,5.08.15,3.78-.06,5.64-.17,3.68-.24,5.36-.48a17.13,17.13,0,0,0,2.28-.44,5.67,5.67,0,0,0,.72-.23c.22-.1,0,.08.1,0a16.25,16.25,0,0,0,1.45-1.66c.55-.7,1.1-1.45,1.64-2.21,1.1-1.53,2.19-3.12,3.28-4.72l6.53-9.69Z" style="fill:#fff;opacity:0.7000000000000001"/><path d="M215.61,212.57c-3.21.23-6.37.31-9.63.24l.16-2.1.78-1.84A12.65,12.65,0,0,1,215.61,212.57Z" style="opacity:0.1"/><path d="M153.29,382s-9-6.23-8.5-10.41a.71.71,0,0,0-.62-.84l-7.67-1.16a1,1,0,0,0-1,.4L131,376.38l2,.73,1.09-.76.52,1.35c11.05,4,15.87,5.61,18.31,5.71C153.64,382.55,153.29,382,153.29,382Z"/><path d="M204.27,264.4s-.46,1.2-1.27,3.28c-.87,2.25-2.15,5.53-3.69,9.43-1,2.6-2.17,5.48-3.4,8.51-5.65,14-12.95,31.41-17.78,40.18-9.25,16.78-33.35,48.65-33.35,48.65l-9.63-3.52s17.34-32.82,26.09-49.45A193.79,193.79,0,0,0,170,300.81c1.45-3.87,2.89-7.9,4.28-11.89.63-1.8,1.25-3.6,1.85-5.37,1.59-4.68,3.08-9.19,4.39-13.21.16-.5.32-1,.48-1.48.53-1.65,1-3.21,1.48-4.65,1.88-5.92,3.05-9.82,3.09-10h0l8.59,4.68Z" style="fill:#263238"/><path d="M203,267.68c-.87,2.25-2.15,5.53-3.69,9.43-1,2.6-2.17,5.48-3.4,8.51-7.86,1.58-15.86,2.65-21.61,3.3.63-1.8,1.25-3.6,1.85-5.37,1.59-4.68,3.08-9.19,4.39-13.21.16-.5.32-1,.48-1.48.53-1.65,1-3.21,1.48-4.65C188.28,265,196,266.18,203,267.68Z" style="opacity:0.30000000000000004"/><path d="M173.5,208s0,0,0,0a79.71,79.71,0,0,1,2.65,15.38c.35,4.15.48,8.23.5,11.9s-.1,6.95-.22,9.45c-.16,3.22-.35,5.19-.35,5.19l30.38,1.57c9.12-33,.3-48.84.3-48.84a63.65,63.65,0,0,0-8.14-.19c-.56,0-1.14.06-1.72.11a117.24,117.24,0,0,0-13.59,2.38c-.81.18-1.63.39-2.43.6C176.92,206.63,173.5,208,173.5,208Z" style="fill:#008000"/><path d="M206.47,251.48l-30.38-1.56s.19-2,.35-5.2c0-.94.08-2,.12-3.17.06-1.87.1-4,.1-6.28,0-1.11,0-2.26-.06-3.44,0-.19,0-.38,0-.57-.05-1.87-.14-3.81-.27-5.78-.06-.7-.11-1.4-.17-2.1,0-.55-.09-1.11-.14-1.66-.15-1.4-.31-2.8-.51-4.18-.05-.38-.11-.76-.17-1.13-.09-.63-.19-1.24-.3-1.86a62.62,62.62,0,0,0-1.52-6.57h0s3.43-1.34,7.4-2.43c.79-.21,1.61-.42,2.42-.6a120.19,120.19,0,0,1,13.59-2.38c.59,0,1.16-.09,1.73-.1a62.75,62.75,0,0,1,8.14.18S215.59,218.43,206.47,251.48Z" style="fill:#fff;opacity:0.7000000000000001"/><path d="M225.26,330.54s-8.68-6.74-7.88-10.88a.72.72,0,0,0-.57-.88l-7.6-1.6a1,1,0,0,0-1,.35l-4.89,6.09,2,.85,1.13-.7.44,1.37c10.81,4.63,15.53,6.52,18,6.76C225.58,331.08,225.26,330.54,225.26,330.54Z"/><path d="M190.62,277.29l.71,0,36.43,5.3L207,317l10.38,4s37.55-40.48,29.16-49.71c-6.9-7.59-40.7-12.21-40.7-12.21l1.11-7.92L175.71,245C162.34,274.22,186.15,277,190.62,277.29Z" style="fill:#263238"/><polygon points="175.34 248.07 174.68 247.94 175.28 245.84 175.87 245.95 175.34 248.07" style="fill:#263238"/><polygon points="199.93 252.83 186.58 250.25 187.1 248.13 200.4 250.71 199.93 252.83" style="fill:#263238"/><polygon points="201.43 250.91 207.07 252 206.69 254.14 200.98 253.03 201.43 250.91" style="fill:#263238"/><polygon points="176.9 246.15 186.08 247.93 185.54 250.04 176.39 248.27 176.9 246.15" style="fill:#263238"/><g style="opacity:0.2"><polygon points="175.34 248.07 174.68 247.94 175.28 245.84 175.87 245.95 175.34 248.07" style="fill:#fff"/><polygon points="199.93 252.83 186.58 250.25 187.1 248.13 200.4 250.71 199.93 252.83" style="fill:#fff"/><polygon points="201.43 250.91 207.07 252 206.69 254.14 200.98 253.03 201.43 250.91" style="fill:#fff"/><polygon points="176.9 246.15 186.08 247.93 185.54 250.04 176.39 248.27 176.9 246.15" style="fill:#fff"/></g><path d="M195.54,252.21h-.12l-3.34-.6a.67.67,0,0,1-.46-.3.65.65,0,0,1-.09-.54l.33-1.34a.68.68,0,0,1,.8-.51l3.31.64a.65.65,0,0,1,.45.3.67.67,0,0,1,.09.53h0l-.3,1.29A.69.69,0,0,1,195.54,252.21Zm-3-2.73a.11.11,0,0,0-.1.08l-.33,1.34a.1.1,0,0,0,0,.08.09.09,0,0,0,.07,0l3.34.6a.12.12,0,0,0,.12-.08l.3-1.29a.09.09,0,0,0,0-.08.06.06,0,0,0-.06,0l-3.31-.65Z" style="fill:#fff"/><path d="M193.46,250.72h-.05l-1-.18a.29.29,0,0,1-.24-.34.28.28,0,0,1,.34-.24l1,.18a.29.29,0,0,1,.24.34A.3.3,0,0,1,193.46,250.72Z" style="fill:#fff"/><path d="M186.47,191.15l7.93,6.58c-.77,3.22.58,6.19,2.14,6.74,0,0,1.16,2.76-1.07,3.22-4.53.94-9.69-3.44-9.69-3.44C188.18,201.68,187.31,195.26,186.47,191.15Z" style="fill:#ebb376"/><path d="M189.7,193.83l4.7,3.89A13.34,13.34,0,0,0,194,200c-1.76-.23-4.19-2.11-4.39-3.95A6.39,6.39,0,0,1,189.7,193.83Z" style="opacity:0.2"/><path d="M193.48,178.15c1.92,1.2,4.52,4.81,1.29,5.68S190.17,176.09,193.48,178.15Z" style="fill:#263238"/><path d="M183.56,190.49c3.36,4.42,5.1,7.19,9,8,5.87,1.2,10.13-4.78,8.16-10.14-1.78-4.82-7-11.25-12.69-10A7.67,7.67,0,0,0,183.56,190.49Z" style="fill:#ffb573"/><path d="M184.55,185.66l-4-4.7s-5.33,3.92-2.91,6.29c-1.59,3.75,4.74,9,10.28,7.92.65-3.39-4.29-9.17-4.29-9.17A9.9,9.9,0,0,0,184.55,185.66Z" style="fill:#263238"/><path d="M184.34,195.52a5.21,5.21,0,0,0,3.87,1.1c1.83-.23,2-2.06.95-3.43s-3.14-2.59-4.7-1.67A2.41,2.41,0,0,0,184.34,195.52Z" style="fill:#ffb573"/><path d="M191.39,187c.25.37.66.54.9.38s.24-.61,0-1-.65-.54-.9-.38S191.14,186.66,191.39,187Z" style="fill:#263238"/><path d="M195.62,184.16c.26.38.66.55.9.38s.24-.61,0-1-.65-.55-.9-.38S195.37,183.78,195.62,184.16Z" style="fill:#263238"/><path d="M194.4,185.26a15.6,15.6,0,0,0,3.89,1.87c-.26,1-1.58,1.51-1.58,1.51Z" style="fill:#ed893e"/><path d="M193.23,191.19a3.49,3.49,0,0,0-.5.32.13.13,0,0,0,0,.18.12.12,0,0,0,.18,0,3.53,3.53,0,0,1,3.18-.58.13.13,0,0,0,.17-.08.13.13,0,0,0-.07-.17A3.74,3.74,0,0,0,193.23,191.19Z" style="fill:#263238"/><path d="M188.5,185.8a.27.27,0,0,0,.24-.12,2.15,2.15,0,0,1,1.63-1,.25.25,0,0,0,.26-.27.26.26,0,0,0-.26-.26,2.67,2.67,0,0,0-2.08,1.27.27.27,0,0,0,.08.37A.22.22,0,0,0,188.5,185.8Z" style="fill:#263238"/><path d="M195.67,180.75a.29.29,0,0,0,0-.16.27.27,0,0,0-.33-.18,2.61,2.61,0,0,0-1.8,1.6.28.28,0,0,0,.17.34.26.26,0,0,0,.33-.17,2.06,2.06,0,0,1,1.44-1.26A.26.26,0,0,0,195.67,180.75Z" style="fill:#263238"/><path d="M183.6,186s10.56-4.44,11.21-9.5-3.82-3-3.82-3,2.07-.14,1.87,1.36c0,0-3.57-2.43-7-.34a3.15,3.15,0,0,1,2.43,1.15,18.87,18.87,0,0,0-6.85,3.31C177.85,181.68,171.34,191.29,183.6,186Z" style="fill:#263238"/><path d="M205.86,259l-17.21-2a97.44,97.44,0,0,1,17.59-.72Z" style="opacity:0.30000000000000004"/><path d="M176.32,225.48c-.06-.7-.11-1.4-.17-2.1,0-.55-.09-1.11-.14-1.66-.15-1.4-.31-2.8-.51-4.18-.05-.38-.11-.76-.17-1.13a10.73,10.73,0,0,1,1.51-1A23.78,23.78,0,0,1,176.32,225.48Z" style="opacity:0.1"/><path d="M147.65,250l-3,7,6.47,1.6s2.78-4.61.07-8.13Z" style="fill:#ebb376"/><polygon points="145.12 262.47 150.23 262.51 151.13 258.66 144.66 257.06 145.12 262.47" style="fill:#ebb376"/><path d="M176.76,212.82c.45,4.4-1.06,6.19-1.06,6.19s-4.26,2.68-6.11,4.05c-1.57,1.19-3.11,2.39-4.57,3.59-.72.61-1.42,1.22-2.06,1.83a18.07,18.07,0,0,0-1.6,1.71,9.17,9.17,0,0,0-.51.79c-.18.29-.37.73-.57,1.09-.39.8-.78,1.66-1.15,2.55-.74,1.79-1.44,3.65-2.1,5.54-1.39,3.76-2.68,7.64-4,11.45l-5.91-1.41c.6-4.14,1.41-8.19,2.35-12.28.49-2,1-4.08,1.67-6.16.31-1,.66-2.09,1.06-3.17.24-.57.44-1.08.74-1.69a15.82,15.82,0,0,1,1-1.86,24.29,24.29,0,0,1,2.38-3c.79-.86,1.58-1.65,2.38-2.42,1.59-1.52,3.22-2.91,4.88-4.25,3.31-2.69,6.63-5.15,10.19-7.53C173.8,207.87,176.36,208.84,176.76,212.82Z" style="fill:#008000"/><path d="M176.76,212.82c.45,4.4-1.06,6.19-1.06,6.19s-4.26,2.68-6.11,4.05c-1.57,1.19-3.11,2.39-4.57,3.59-.72.61-1.42,1.22-2.06,1.83a18.07,18.07,0,0,0-1.6,1.71,9.17,9.17,0,0,0-.51.79c-.18.29-.37.73-.57,1.09-.39.8-.78,1.66-1.15,2.55-.74,1.79-1.44,3.65-2.1,5.54-1.39,3.76-2.68,7.64-4,11.45l-5.91-1.41c.6-4.14,1.41-8.19,2.35-12.28.49-2,1-4.08,1.67-6.16.31-1,.66-2.09,1.06-3.17.24-.57.44-1.08.74-1.69a15.82,15.82,0,0,1,1-1.86,24.29,24.29,0,0,1,2.38-3c.79-.86,1.58-1.65,2.38-2.42,1.59-1.52,3.22-2.91,4.88-4.25,3.31-2.69,6.63-5.15,10.19-7.53C173.8,207.87,176.36,208.84,176.76,212.82Z" style="fill:#fff;opacity:0.7000000000000001"/><path d="M190.19,206.92l2.22,3.49s-7.75,9.4-22.59,12.5l-1,3,3.16.83s16-4.15,22.42-16.17l3.3-3.68-3.89-1.31Z" style="fill:#008000"/><polygon points="183 204.82 186.62 201.66 193.81 205.6 194.65 201.29 198.45 203.47 199.54 209.06 194.23 206.76 189.49 211 183 204.82" style="fill:#008000"/><polygon points="183 204.82 186.62 201.66 193.81 205.6 194.65 201.29 198.45 203.47 199.54 209.06 194.23 206.76 189.49 211 183 204.82" style="fill:#fff;opacity:0.6000000000000001"/></g><g id="freepik--character-2--inject-158"><path d="M282.19,142.27s-6.73,8.34-13.55,7.65S258.33,152,258.33,152l-.67,3.33,3.66-.5s0-2.64,7.12-2.34,12.46-5.82,14.54-8.6Z" style="fill:#008000"/><path d="M330.49,128.41l-.14-.66a4.7,4.7,0,0,0-.28-.94,6.4,6.4,0,0,0-1.63-2.37,8.85,8.85,0,0,0-3.06-1.8,19.25,19.25,0,0,0-4.42-1c-1.33-.15-2.6-.22-3.85-.25-2.49-.07-4.89,0-7.26.2a133.52,133.52,0,0,0-14.08,1.69l1.72,9.85c4.31-.68,8.81-1.31,13.16-1.76,2.18-.23,4.35-.36,6.44-.43,1,0,2.07,0,3,0a16.11,16.11,0,0,1,1.81.2,9.69,9.69,0,0,1,0,1.1,24.21,24.21,0,0,1-1.07,5.67A77.21,77.21,0,0,1,316,150l4.75,3.16a58.44,58.44,0,0,0,7.59-12.4,29.19,29.19,0,0,0,2.26-7.61A15,15,0,0,0,330.49,128.41Z" style="fill:#008000"/><path d="M330.54,133.14a27.06,27.06,0,0,1-1.75,6.39c-.16.41-.33.82-.5,1.22a58.4,58.4,0,0,1-7.6,12.39L316,150a78.8,78.8,0,0,0,4.92-12,29.23,29.23,0,0,0,.91-4,14,14,0,0,0,.16-1.64,9.76,9.76,0,0,0,0-1.1,16.11,16.11,0,0,0-1.81-.2c-1-.06-2-.06-3,0h-.23c-2,.07-4.11.21-6.22.42-4.22.44-8.56,1-12.75,1.71l-.4.06-1.72-9.86a136,136,0,0,1,14.07-1.69c2.38-.15,4.78-.27,7.27-.2,1.25,0,2.51.1,3.85.25a19.79,19.79,0,0,1,4.42,1,9,9,0,0,1,3.06,1.8,6.4,6.4,0,0,1,1.63,2.37,5.58,5.58,0,0,1,.28.94l.14.66A15.07,15.07,0,0,1,330.54,133.14Z" style="fill:#fff;opacity:0.7000000000000001"/><path d="M316.86,131c-2,.07-4.11.21-6.22.42-4.22.44-8.56,1-12.75,1.71,1.53-3.76,3.1-7.56,3.1-7.56A46.58,46.58,0,0,1,316.86,131Z" style="opacity:0.1"/><path d="M328.79,139.53c-.16.41-.33.82-.5,1.22a58.4,58.4,0,0,1-7.6,12.39L316,150a78.8,78.8,0,0,0,4.92-12,29.23,29.23,0,0,0,.91-4A56.33,56.33,0,0,1,328.79,139.53Z" style="opacity:0.1"/><path d="M264.88,130.39c.28.34.31.77.09,1s-.63,0-.91-.3-.31-.78-.08-.95S264.61,130,264.88,130.39Z" style="fill:#263238"/><path d="M265.23,131.13a15.69,15.69,0,0,1,.68,4.27,2.58,2.58,0,0,0,1.9-1Z" style="fill:#de5753"/><path d="M264.63,127.47a.23.23,0,0,0,.06-.18.26.26,0,0,0-.27-.25,2.57,2.57,0,0,0-2.07,1.13.27.27,0,0,0,.09.36.26.26,0,0,0,.35-.09h0a2.05,2.05,0,0,1,1.66-.88A.24.24,0,0,0,264.63,127.47Z" style="fill:#263238"/><path d="M274.84,125c3.31,2.38,9.63,6.15,13.22,4.72,0,0,3.23,2.69.13,9.43-3.41,7.42-5.31,1.86-5.31,1.86.89-4.5-2.16-5.77-5.31-6.36Z" style="fill:#e4897b"/><path d="M275.84,120.55c3.09,4.45,5.13,6.9,4.7,10.77-.63,5.83-7.41,8-11.77,4.59-3.93-3.1-8.33-9.86-5.51-14.83A7.4,7.4,0,0,1,275.84,120.55Z" style="fill:#e4897b"/><path d="M280.81,127.89c-.47,2.53-9,6-12.81.54,0,0-4.84,0-7.75-3s-2.28-6.07.32-7.79c2.3-1.52,8.24-12.69,15.16-4.72C283.24,112.66,281.38,124.75,280.81,127.89Z" style="fill:#263238"/><path d="M266.46,116.48s-4.46-.22-7,1.82-1.85,8.32-.86,9.5a2.91,2.91,0,0,0,2,1.19s-1.51-.79-1.51-2c0,0,.66,1.55,3.69,2a1.91,1.91,0,0,1-.73-1.57s1.64,2.13,5.44,0S266.46,116.48,266.46,116.48Z" style="fill:#263238"/><path d="M270.25,127.49a6.15,6.15,0,0,1,1.07,3.79c-.11,1.77-1.59,1.91-2.76.79s-2.25-3.13-1.56-4.61S269.31,126.17,270.25,127.49Z" style="fill:#e4897b"/><path d="M279.13,142.27s-.83-10.07,5.74-15.72l7.83.72S288.19,138.28,279.13,142.27Z" style="fill:#008000"/><path d="M279.13,142.27s-.83-10.07,5.74-15.72l7.83.72S288.19,138.28,279.13,142.27Z" style="fill:#fff;opacity:0.6000000000000001"/><path d="M301.7,164.92s-11.84-11.63-24.92-19.76c0,0,8.71-20.47,19.75-22.3,0,0,28.53,8.62,36.81,32Z" style="fill:#008000"/><polygon points="303.2 235.82 298.1 237.99 292.57 226.38 297.68 224.21 303.2 235.82" style="fill:#e4897b"/><path d="M333.34,154.83l-3,32a21.32,21.32,0,0,1-7.48,2.92c-6.24,1.45-14.56,2.11-21.75,2.5-8.07.44-14.7.52-15.3,1-1.4,1.1,16.37,37.8,16.37,37.8l-8.48,1.06s-22.29-30.58-25.18-41.2c-1.06-3.92-2.13-8.83,5.07-13.42,6.34-4,29.94-7.07,29.94-7.07l-1.82-5.45Z" style="fill:#263238"/><path d="M322.85,189.72c-6.24,1.45-14.56,2.11-21.75,2.5-1-11.8,5-23.12,5-23.12l8.44-2.16Z" style="opacity:0.2"/><polygon points="377.59 231.12 378.5 236.59 365.91 239.23 365 233.75 377.59 231.12" style="fill:#e4897b"/><path d="M378.76,236.79a.12.12,0,0,0-.14,0,.13.13,0,0,0-.08.12c0,.1.08,2.33.77,3a.68.68,0,0,0,.48.2.5.5,0,0,0,.5-.29c.15-.37-.13-1-.5-1.61A9.61,9.61,0,0,0,378.76,236.79Zm.06.47c.67.8,1.4,2,1.23,2.4,0,.06-.08.13-.26.14a.43.43,0,0,1-.3-.13.8.8,0,0,1-.15-.2A6,6,0,0,1,378.82,237.26Z" style="fill:#008000"/><path d="M378.72,236.76a.13.13,0,0,0-.13,0s-1.25.95-1.37,1.85a1,1,0,0,0,.19.74c.22.29.43.28.57.22.59-.24.91-2,.82-2.73,0,0,0,0,0-.05A.1.1,0,0,0,378.72,236.76Zm-1.24,1.91a3,3,0,0,1,1.07-1.52c0,.79-.32,2-.67,2.2,0,0-.12.05-.26-.14a.16.16,0,0,1,0-.07A.7.7,0,0,1,377.48,238.67Z" style="fill:#008000"/><path d="M377.81,236.72l-3.18-5.16a.51.51,0,0,1,.08-.61l3.62-3.52a.81.81,0,0,1,1.26.17c1.12,1.88,2.67,4.63,4.11,7,1.68,2.74,3.29,5,5.26,8.22,1.2,1.94-.43,3.68-1.11,3-3.09-3.2-5-6.16-9-8.14A2.64,2.64,0,0,1,377.81,236.72Z" style="fill:#263238"/><path d="M333.34,154.83s10.17,26.13-7,36.27c0,0-.22,30.2,4.12,33.74,5.27,4.3,43.9,6.49,43.9,6.49l-.33,9.6s-41.36,3.38-53.88-1.11c-14.67-5.26-17.93-74.45-17.93-74.45Z" style="fill:#263238"/><path d="M321.59,170.87l6.17-1.86a69.41,69.41,0,0,1,.84,8.15l-2.86,2.46-2.71-.86A70.14,70.14,0,0,0,321.59,170.87Z" style="opacity:0.2"/><polygon points="303.74 164.94 304.54 167.48 302.25 168.19 301.45 165.67 303.74 164.94" style="fill:#263238"/><polygon points="314.27 161.56 315.13 164.19 305.68 167.12 304.84 164.58 314.27 161.56" style="fill:#263238"/><polygon points="326.04 157.79 326.9 160.54 316.33 163.82 315.49 161.17 326.04 157.79" style="fill:#263238"/><polygon points="334.64 158.14 328.13 160.16 328.12 160.16 327.25 157.4 333.71 155.33 334.64 158.14" style="fill:#263238"/><g style="opacity:0.2"><polygon points="303.74 164.94 304.54 167.48 302.25 168.19 301.45 165.67 303.74 164.94" style="fill:#fff"/><polygon points="314.27 161.56 315.13 164.19 305.68 167.12 304.84 164.58 314.27 161.56" style="fill:#fff"/><polygon points="326.04 157.79 326.9 160.54 316.33 163.82 315.49 161.17 326.04 157.79" style="fill:#fff"/><polygon points="334.64 158.14 328.13 160.16 328.12 160.16 327.25 157.4 333.71 155.33 334.64 158.14" style="fill:#fff"/></g><path d="M296.53,236.37a.14.14,0,0,0,.1-.11.13.13,0,0,0-.07-.14c-.08,0-2.05-1.1-3-.83a.68.68,0,0,0-.41.32.51.51,0,0,0,0,.58c.24.31.93.39,1.64.37A9.24,9.24,0,0,0,296.53,236.37Zm-.43-.19c-1,.17-2.43.2-2.7-.15,0-.05-.07-.13,0-.29a.35.35,0,0,1,.25-.19.69.69,0,0,1,.25,0A5.91,5.91,0,0,1,296.1,236.18Z" style="fill:#008000"/><path d="M296.58,236.35a.13.13,0,0,0,.05-.13,3.75,3.75,0,0,0-.91-2.11,1,1,0,0,0-.74-.21c-.36,0-.46.23-.48.38-.08.63,1.27,1.8,1.95,2.08h.05Zm-1-2a3.09,3.09,0,0,1,.77,1.7c-.69-.4-1.62-1.32-1.57-1.7,0,0,0-.12.26-.15h.08A.76.76,0,0,1,295.56,234.31Z" style="fill:#008000"/><path d="M297.07,235.58l6.06-.14a.47.47,0,0,1,.48.37l1.22,4.9a.82.82,0,0,1-.78,1c-2.19,0-5.35,0-8.09,0-3.22.07-6,.31-9.75.4-2.28.06-3-2.23-2-2.46,4.32-1.06,7.86-1.24,11.56-3.64A2.63,2.63,0,0,1,297.07,235.58Z" style="fill:#263238"/><path d="M333.34,154.84,301.7,164.92s-5.58-5.47-13.31-11.54c-1.47-1.15-3-2.32-4.61-3.48-2.25-1.64-4.61-3.25-7-4.74,0,0,8.72-20.47,19.76-22.29C296.53,122.87,325.06,131.48,333.34,154.84Z" style="fill:#fff;opacity:0.7000000000000001"/><path d="M288.39,153.38c-1.47-1.15-3-2.32-4.61-3.48l.62-1.87A16.36,16.36,0,0,1,288.39,153.38Z" style="opacity:0.1"/><path d="M242.68,174.26l-2.18.52a1.38,1.38,0,0,0-1.05,1.12l-.49,3a1.38,1.38,0,0,0,.85,1.51l1.6.63s4.6,3.32,8.49,1.18l-1.68-4.45-3.29-3A2.49,2.49,0,0,0,242.68,174.26Z" style="fill:#e4897b"/><path d="M282.39,146a7.06,7.06,0,0,1,3,5.14s-2.2,6-3.47,8.93c-.87,2-1.77,4-2.82,6a36.72,36.72,0,0,1-3.88,6.21l-.35.41-.4.44a12.64,12.64,0,0,1-1,.92,7.29,7.29,0,0,1-.67.5c-.22.15-.54.36-.63.4l-.85.44c-1.1.55-2.13,1-3.16,1.41-2.06.84-4.09,1.58-6.13,2.28-4.1,1.37-8.17,2.62-12.35,3.67l-2-5.35c3.75-1.92,7.57-3.74,11.3-5.61,1.87-.93,3.73-1.86,5.51-2.8.88-.47,1.76-1,2.52-1.42l.54-.34c.14-.08,0,0,0,0s-.07.06,0,0,.07-.07.16-.2l.12-.15.14-.21a33,33,0,0,0,2.52-4.74c.79-1.8,1.59-3.67,2.32-5.58,1.45-3.8,2.84-7.76,4.14-11.6A7.89,7.89,0,0,1,282.39,146Z" style="fill:#008000"/><path d="M282.39,146a7.06,7.06,0,0,1,3,5.14s-2.2,6-3.47,8.93c-.87,2-1.77,4-2.82,6a36.72,36.72,0,0,1-3.88,6.21l-.35.41-.4.44a12.64,12.64,0,0,1-1,.92,7.29,7.29,0,0,1-.67.5c-.22.15-.54.36-.63.4l-.85.44c-1.1.55-2.13,1-3.16,1.41-2.06.84-4.09,1.58-6.13,2.28-4.1,1.37-8.17,2.62-12.35,3.67l-2-5.35c3.75-1.92,7.57-3.74,11.3-5.61,1.87-.93,3.73-1.86,5.51-2.8.88-.47,1.76-1,2.52-1.42l.54-.34c.14-.08,0,0,0,0s-.07.06,0,0,.07-.07.16-.2l.12-.15.14-.21a33,33,0,0,0,2.52-4.74c.79-1.8,1.59-3.67,2.32-5.58,1.45-3.8,2.84-7.76,4.14-11.6A7.89,7.89,0,0,1,282.39,146Z" style="fill:#fff;opacity:0.7000000000000001"/></g><g id="freepik--arrow-2--inject-158"><polygon points="99.51 411.32 268.39 411.32 357.77 339.12 361.69 343.97 383.7 343.97 406.13 240.74 384.1 240.78 384.11 240.74 278.47 240.95 291.08 256.56 99.51 411.32" style="fill:#008000"/><polygon points="99.51 411.32 246.38 411.32 349.07 328.36 361.69 343.97 384.11 240.74 278.47 240.95 291.08 256.56 99.51 411.32" style="fill:#fff;opacity:0.2"/><path d="M96.07,405.36H217.33a13.6,13.6,0,0,1-.09-1.56,14.09,14.09,0,0,1,14.09-14.1l.52,0A12.47,12.47,0,0,1,256,394.07v0a11.9,11.9,0,0,1,11.32,11.26h.57a6.27,6.27,0,1,1,0,12.53H96.07a6.27,6.27,0,1,1,0-12.53Z" style="fill:#008000"/><path d="M96.07,405.36H217.33a13.6,13.6,0,0,1-.09-1.56,14.09,14.09,0,0,1,14.09-14.1l.52,0A12.47,12.47,0,0,1,256,394.07v0a11.9,11.9,0,0,1,11.32,11.26h.57a6.27,6.27,0,1,1,0,12.53H96.07a6.27,6.27,0,1,1,0-12.53Z" style="fill:#fff;opacity:0.7000000000000001"/></g></svg>